<svg xmlns="http://www.w3.org/2000/svg" viewBox="0 0 970 250" role="img" aria-labelledby="title desc">
  <title id="title">Urugero Live Radio advertisement</title>
  <desc id="desc">Premium banner ad for Urugero live radio.</desc>
  <defs>
    <linearGradient id="bg" x1="0" x2="1" y1="0" y2="1">
      <stop offset="0" stop-color="#111111"/>
      <stop offset="0.46" stop-color="#321010"/>
      <stop offset="1" stop-color="#b80000"/>
    </linearGradient>
    <linearGradient id="gold" x1="0" x2="1">
      <stop offset="0" stop-color="#ffd76a"/>
      <stop offset="1" stop-color="#fff7c6"/>
    </linearGradient>
    <radialGradient id="glow" cx="78%" cy="50%" r="56%">
      <stop offset="0" stop-color="#ffffff" stop-opacity=".28"/>
      <stop offset="1" stop-color="#ffffff" stop-opacity="0"/>
    </radialGradient>
    <filter id="shadow" x="-20%" y="-20%" width="140%" height="140%">
      <feDropShadow dx="0" dy="14" stdDeviation="16" flood-color="#000000" flood-opacity=".28"/>
    </filter>
  </defs>
  <rect width="970" height="250" rx="24" fill="url(#bg)"/>
  <rect width="970" height="250" rx="24" fill="url(#glow)"/>
  <path d="M32 190 C162 75 304 238 436 118 C575 -9 703 170 936 54" fill="none" stroke="#ffffff" stroke-opacity=".14" stroke-width="20" stroke-linecap="round"/>
  <path d="M32 211 C190 112 295 238 462 148 C607 70 734 171 936 101" fill="none" stroke="#ffd76a" stroke-opacity=".24" stroke-width="8" stroke-linecap="round"/>
  <g transform="translate(716 46)" filter="url(#shadow)">
    <circle cx="90" cy="80" r="78" fill="#ffffff" fill-opacity=".12"/>
    <circle cx="90" cy="80" r="58" fill="#ffffff"/>
    <path d="M78 48v64l50-32z" fill="#b80000"/>
    <circle cx="90" cy="80" r="76" fill="none" stroke="#ffd76a" stroke-width="6"/>
  </g>
  <rect x="52" y="38" width="214" height="31" rx="15.5" fill="#ffffff" fill-opacity=".12" stroke="#ffffff" stroke-opacity=".25"/>
  <circle cx="75" cy="54" r="5" fill="#ff2a2a"/>
  <text x="91" y="59" fill="#ffffff" font-family="Segoe UI, Arial, sans-serif" font-size="14" font-weight="900" letter-spacing="2">LIVE NOW</text>
  <text x="54" y="119" fill="#ffffff" font-family="Segoe UI, Arial, sans-serif" font-size="48" font-weight="900">Urugero Online Radio</text>
  <text x="56" y="158" fill="#ffe4e4" font-family="Segoe UI, Arial, sans-serif" font-size="23" font-weight="700">Indirimbo z'Imana, inyigisho, amakuru na gahunda za buri munsi</text>
  <rect x="56" y="184" width="212" height="42" rx="21" fill="url(#gold)"/>
  <text x="86" y="211" fill="#8a0000" font-family="Segoe UI, Arial, sans-serif" font-size="18" font-weight="900">UMVA NONAHA</text>
</svg>
