<svg xmlns="http://www.w3.org/2000/svg" viewBox="0 0 600 600" role="img" aria-labelledby="title desc">
  <title id="title">Urugero Bible Quiz advertisement</title>
  <desc id="desc">Square ad for Urugero Bible Quiz and teaching programs.</desc>
  <defs>
    <linearGradient id="bg" x1="0" x2="1" y1="0" y2="1">
      <stop offset="0" stop-color="#111111"/>
      <stop offset=".6" stop-color="#261212"/>
      <stop offset="1" stop-color="#b80000"/>
    </linearGradient>
    <linearGradient id="gold" x1="0" x2="1">
      <stop offset="0" stop-color="#ffcf53"/>
      <stop offset="1" stop-color="#fff0ad"/>
    </linearGradient>
  </defs>
  <rect width="600" height="600" rx="32" fill="url(#bg)"/>
  <circle cx="476" cy="122" r="112" fill="#ffffff" fill-opacity=".08"/>
  <circle cx="124" cy="488" r="132" fill="#ffcf53" fill-opacity=".12"/>
  <rect x="72" y="72" width="456" height="456" rx="28" fill="none" stroke="#ffffff" stroke-opacity=".16" stroke-width="6"/>
  <path d="M202 133h196c20 0 36 16 36 36v210c0 20-16 36-36 36H202c-20 0-36-16-36-36V169c0-20 16-36 36-36z" fill="#ffffff"/>
  <path d="M214 184h172M214 232h172M214 280h116" stroke="#b80000" stroke-width="18" stroke-linecap="round" opacity=".24"/>
  <circle cx="300" cy="360" r="54" fill="url(#gold)"/>
  <text x="300" y="379" fill="#8a0000" font-family="Segoe UI, Arial, sans-serif" font-size="58" font-weight="900" text-anchor="middle">?</text>
  <text x="300" y="465" fill="#ffffff" font-family="Segoe UI, Arial, sans-serif" font-size="40" font-weight="900" text-anchor="middle">Bible Quiz</text>
  <text x="300" y="506" fill="#ffe6e6" font-family="Segoe UI, Arial, sans-serif" font-size="22" font-weight="750" text-anchor="middle">Inyigisho zubaka umuryango</text>
</svg>
